<?xml version="1.0" encoding="utf-8"?>
<!-- Generator: Adobe Illustrator 16.0.0, SVG Export Plug-In . SVG Version: 6.00 Build 0)  -->
<!DOCTYPE svg PUBLIC "-//W3C//DTD SVG 1.1//EN" "http://www.w3.org/Graphics/SVG/1.1/DTD/svg11.dtd">
<svg version="1.1" id="Layer_1" xmlns="http://www.w3.org/2000/svg" xmlns:xlink="http://www.w3.org/1999/xlink" x="0px" y="0px"
	 width="128px" height="128px" viewBox="0 0 128 128" enable-background="new 0 0 128 128" xml:space="preserve">
<linearGradient id="SVGID_1_" gradientUnits="userSpaceOnUse" x1="63.9995" y1="4" x2="63.9995" y2="124.0005">
	<stop  offset="0" style="stop-color:#2C80FF"/>
	<stop  offset="0.4844" style="stop-color:#3F96FF"/>
	<stop  offset="0.5183" style="stop-color:#FFD215"/>
	<stop  offset="1" style="stop-color:#FF992A"/>
</linearGradient>
<linearGradient id="SVGID_2_" gradientUnits="userSpaceOnUse" x1="63.9995" y1="1" x2="63.9995" y2="127.0005">
	<stop  offset="0" style="stop-color:#AAAAAA"/>
	<stop  offset="1" style="stop-color:#777777"/>
</linearGradient>
<path fill="url(#SVGID_1_)" stroke="url(#SVGID_2_)" stroke-width="6" stroke-miterlimit="10" d="M124,116c0,4.418-3.581,8-8,8H12
	c-4.418,0-8-3.582-8-8V12c0-4.418,3.582-8,8-8h104c4.419,0,8,3.582,8,8V116z"/>
<path fill="none" stroke="#777777" stroke-miterlimit="10" d="M121,115.104c0,3.257-2.642,5.896-5.896,5.896H12.896
	c-3.256,0-5.896-2.64-5.896-5.896V12.896C6.999,9.64,9.639,7,12.896,7h102.208C118.358,7,121,9.64,121,12.896V115.104z"/>
<rect x="7" y="62" fill="#777777" width="114" height="4"/>
<text transform="matrix(1 0 0 1 38.2241 48.751)" opacity="0.7" fill="#222222" font-family="'MyriadPro-Bold'" font-size="48">2x</text>
<text transform="matrix(1 0 0 1 38.1284 107.498)" opacity="0.7" fill="#222222" font-family="'MyriadPro-Bold'" font-size="48">5y</text>
</svg>
